<svg width="34" height="34" viewBox="0 0 34 34" fill="none" xmlns="http://www.w3.org/2000/svg">
<path d="M16.8542 33.9979C7.66978 33.9911 0.0731124 26.4144 0.068608 17.2523C0.0618514 7.67689 7.63375 -0.0452248 16.9826 0.000199377C26.2662 0.0456236 33.775 7.70868 33.7885 17.1478C33.802 26.4144 26.1761 34.0047 16.8542 33.9979ZM14.6313 17.1001C14.6313 20.0027 14.6313 22.8213 14.6313 25.6762C15.843 25.6762 16.9376 25.6762 18.138 25.6762C18.138 24.5951 18.1403 23.614 18.138 22.6351C18.1357 21.311 18.1515 19.9868 18.1222 18.665C18.0839 17.0502 18.0682 17.0797 19.6627 17.0025C20.0253 16.9843 20.6402 16.7413 20.6852 16.5119C20.8677 15.5716 20.8767 14.5973 20.9578 13.498C20.0141 13.498 19.174 13.498 18.2348 13.498C18.2957 12.803 18.165 11.89 18.4263 11.756C19.1673 11.3767 20.0681 11.3154 20.8789 11.1337C20.8789 10.207 20.8789 9.28717 20.8789 8.01075C19.138 8.34689 17.4263 8.36961 16.0074 9.02826C14.2507 9.84362 14.6584 11.8582 14.5255 13.4776C13.9534 13.5162 13.4737 13.548 12.9332 13.5843C12.9332 14.7426 12.9332 15.8578 12.9332 16.9888C13.4985 17.0275 14.0097 17.0615 14.6313 17.1001Z" fill="white"/>
</svg>
