<svg width="34" height="34" viewBox="0 0 34 34" fill="none" xmlns="http://www.w3.org/2000/svg">
<path d="M33.8729 17.118C33.936 26.221 26.4339 33.9454 17.4791 33.9999C7.94784 34.0567 0.31514 26.7048 0.240817 17.3974C0.164243 7.79013 7.6393 0.0248706 16.9769 0.0112433C26.3708 -0.000112749 33.8053 7.52895 33.8729 17.118ZM15.031 14.4834C15.031 17.9515 15.031 21.297 15.031 24.638C16.0738 24.638 17.0265 24.638 18.0512 24.638C18.0512 22.8528 18.0332 21.1539 18.0625 19.4573C18.0715 18.9781 18.058 18.3603 18.3305 18.0515C18.7314 17.5972 19.389 17.0862 19.9138 17.1112C20.4273 17.1362 21.0669 17.7108 21.3642 18.215C21.6412 18.6874 21.5939 19.3824 21.6029 19.982C21.6299 21.5219 21.6119 23.064 21.6119 24.6652C22.6885 24.6652 23.6412 24.6652 24.5263 24.6652C24.5263 22.0488 24.6231 19.4846 24.4857 16.934C24.4159 15.6099 23.4452 14.7741 22.1254 14.5402C20.648 14.279 19.2133 14.3539 17.9408 15.5281C17.8688 15.1012 17.8147 14.7968 17.7629 14.4811C16.8395 14.4834 15.9814 14.4834 15.031 14.4834ZM9.50637 14.4925C9.50637 17.9493 9.50637 21.2857 9.50637 24.6334C10.7181 24.6334 11.8464 24.6334 12.9883 24.6334C12.9883 21.2039 12.9883 17.8698 12.9883 14.4925C11.7969 14.4925 10.6888 14.4925 9.50637 14.4925ZM13.0446 11.0879C13.0085 10.1181 12.1527 9.27551 11.2068 9.28005C10.1933 9.28459 9.39826 10.1567 9.43655 11.2265C9.47258 12.2462 10.2428 12.9503 11.2924 12.9253C12.2811 12.9026 13.0806 12.0646 13.0446 11.0879Z" fill="white"/>
</svg>
