<svg width="34" height="34" viewBox="0 0 34 34" fill="none" xmlns="http://www.w3.org/2000/svg">
<path d="M17.104 0.0112433C7.76636 0.0225993 0.291318 7.78786 0.367893 17.3974C0.442215 26.7048 8.07492 34.0567 17.6062 33.9999C26.561 33.9477 34.063 26.221 34 17.118C33.9324 7.52895 26.4979 -0.000112749 17.104 0.0112433ZM26.2569 18.1105C26.1848 18.3944 26.2119 18.6851 26.1916 18.9713C26.1421 19.7117 26.0835 20.4521 25.9371 21.1812C25.7322 22.2123 25.0655 22.8891 24.0588 23.0822C23.1939 23.248 22.3133 23.2821 21.4372 23.3229C19.8629 23.3933 18.2864 23.4229 16.7121 23.407C14.6536 23.3865 12.5951 23.3684 10.5456 23.1185C9.51858 22.9913 8.69653 22.3191 8.46906 21.3538C8.29114 20.5929 8.23257 19.8185 8.17852 19.0417C8.15825 18.7442 8.17627 18.4421 8.11095 18.1468C8.11095 17.361 8.11095 16.5752 8.11095 15.7871C8.17627 15.5418 8.16275 15.2851 8.17852 15.0353C8.22356 14.2994 8.28437 13.5635 8.43302 12.8413C8.64247 11.8124 9.37444 11.0811 10.3339 10.9267C11.0748 10.8063 11.8226 10.7495 12.5703 10.7177C13.6198 10.6723 14.6716 10.645 15.7211 10.6201C17.3089 10.5837 18.899 10.6155 20.4868 10.67C21.6422 10.7086 22.7975 10.7586 23.9439 10.9244C24.8966 11.0607 25.6623 11.7216 25.8943 12.6505C26.0767 13.3841 26.1353 14.1382 26.1916 14.8922C26.2141 15.2034 26.1961 15.5168 26.2592 15.8234C26.2569 16.5843 26.2569 17.3474 26.2569 18.1105Z" fill="white"/>
<path d="M15.3833 19.7479C16.9598 18.8326 18.5184 17.9286 20.0972 17.0111C18.5229 16.0958 16.9621 15.1895 15.3833 14.272C15.3833 16.1026 15.3833 17.9082 15.3833 19.7479Z" fill="white"/>
</svg>
