<svg width="34" height="34" viewBox="0 0 34 34" fill="none" xmlns="http://www.w3.org/2000/svg">
<path d="M1.83922e-05 17.0298C0.0135316 7.53382 7.59668 -0.0769978 16.9613 0.00703691C26.2494 0.0910716 33.6231 7.73369 33.6028 17.2569C33.5826 26.5211 26.0354 34.0139 16.7406 33.998C7.42101 33.9843 -0.0134948 26.4485 1.83922e-05 17.0298ZM16.842 7.59969C15.5289 7.59969 14.2181 7.57471 12.9051 7.60423C9.77456 7.67691 7.46155 10.0276 7.44128 13.1619C7.42327 15.6943 7.42326 18.2289 7.43453 20.7613C7.44804 24.0796 9.79483 26.4666 13.0966 26.503C15.6078 26.5302 18.1212 26.5325 20.6324 26.5007C23.7607 26.4621 26.1593 24.0046 26.1706 20.8522C26.1818 18.2812 26.1773 15.7102 26.1616 13.1392C26.1435 10.0912 23.781 7.66101 20.7766 7.60196C19.4658 7.57698 18.1527 7.59742 16.842 7.59969Z" fill="white"/>
<path d="M24.5805 17.1001C24.5805 18.1971 24.603 19.2963 24.576 20.3933C24.5152 22.8394 22.6549 24.8199 20.245 24.8903C17.9208 24.9584 15.5897 24.9539 13.2655 24.8903C11.038 24.829 9.09891 22.903 9.03359 20.6636C8.96377 18.2425 8.97504 15.8191 9.0381 13.398C9.09665 11.2335 10.8962 9.3348 13.056 9.23941C15.4524 9.13266 17.86 9.10995 20.2586 9.20761C22.7945 9.30982 24.5445 11.2608 24.576 13.8091C24.594 14.9038 24.5805 16.0008 24.5805 17.1001ZM16.86 11.7059C13.9569 11.6628 11.5516 13.9613 11.502 16.8275C11.4502 19.8914 13.7407 22.3602 16.6753 22.4033C19.5874 22.4465 22.0445 20.089 22.1121 17.1841C22.1819 14.1702 19.8622 11.7514 16.86 11.7059ZM22.9409 11.9558C22.9387 11.79 22.9387 11.6265 22.9364 11.4607C22.5017 11.1609 22.0963 10.6884 21.6234 10.6021C20.8982 10.4704 20.3329 11.0041 20.477 11.7196C20.5671 12.1647 21.1594 12.8007 21.5468 12.8143C21.9995 12.8325 22.4747 12.2669 22.9409 11.9558Z" fill="white"/>
<path d="M16.8599 13.3528C18.8486 13.3755 20.5175 15.1107 20.4589 17.0957C20.4004 19.1148 18.7022 20.7615 16.7225 20.7251C14.7429 20.6865 13.0875 18.9581 13.1258 16.964C13.1641 14.9562 14.8465 13.3301 16.8599 13.3528Z" fill="white"/>
</svg>
